<svg width="24" height="24" viewBox="0 0 24 24" fill="none" xmlns="http://www.w3.org/2000/svg">
<path d="M3 12.5C3 12.7761 3.22386 13 3.5 13H10.5C10.7761 13 11 12.7761 11 12.5V3.5C11 3.22386 10.7761 3 10.5 3H3.5C3.22386 3 3 3.22386 3 3.5V12.5ZM3 20.5C3 20.7761 3.22386 21 3.5 21H10.5C10.7761 21 11 20.7761 11 20.5V15.5C11 15.2239 10.7761 15 10.5 15H3.5C3.22386 15 3 15.2239 3 15.5V20.5ZM13 20.5C13 20.7761 13.2239 21 13.5 21H20.5C20.7761 21 21 20.7761 21 20.5V11.5C21 11.2239 20.7761 11 20.5 11H13.5C13.2239 11 13 11.2239 13 11.5V20.5ZM13.5 3C13.2239 3 13 3.22386 13 3.5V8.5C13 8.77614 13.2239 9 13.5 9H20.5C20.7761 9 21 8.77614 21 8.5V3.5C21 3.22386 20.7761 3 20.5 3H13.5Z" fill="#1D1D1D" fill-opacity="0.6"/>
</svg>
